<svg xmlns="http://www.w3.org/2000/svg" viewBox="0 0 48 48" width="48px" height="48px">
    <path fill="#000000" d="M32.367,28.541c-0.017-1.761,0.773-3.148,2.382-4.156c-0.91-1.321-2.279-2.043-4.095-2.167 c-1.72-0.116-3.594,1.025-4.291,1.025c-0.739,0-2.403-0.97-3.721-0.97c-2.837,0.044-5.61,2.327-5.61,6.967 c0,1.847,0.331,3.75,0.993,5.66c0.883,2.558,4.067,8.831,7.386,8.766c1.739-0.033,2.979-1.267,5.227-1.267 c2.179,0,3.318,1.267,5.227,1.267c3.352-0.049,6.249-5.725,7.099-8.292c-4.463-2.124-4.597-6.228-4.597-6.833 M27.578,18.041c1.619-1.948,1.426-3.724,1.393-4.331c-1.386,0.099-2.988,0.963-3.89,2.043c-0.959,1.113-1.673,2.655-1.393,4.198 C25.176,20.05,26.578,19.218,27.578,18.041"/></svg>